# xmcd
#
# Track frame offsets:
#  150
#  13512
#  26450
#  42037
#  55595
#  68702
#  81462
#  94297
#  108742
#  121837
#  134985
#  145747
#  158350
#  171100
#  183755
#  196120
#  208545
#  220627
#  232330
#  245865
#  259555
#  272630
#  284865
#  297842
#  309975
#  323012
#  335442
#
# Disc length: 4643 seconds
#
# Revision: 0
# Processed by: cddbd v1.5.1PL0 Copyright (c) Steve Scherf et al.
# Submitted via: AltoMP3_Maker 3.0
#
DISCID=8d12211b
DTITLE=Various Artist - Can't You Hear Me Callin': Blue Grass 80 Years of American Music
DYEAR=1900
DGENRE=
TTITLE0=Gid Tanner and His Skillet Lickers - Soldier's Joy
TTITLE1=Charlie Poole and the North Carolina Ramblers - Don't Let Your Deal Go Down Blues
TTITLE2=Charlie Poole and the North Carolina Ramblers - White House Blues
TTITLE3=Charlie Pooe and the North Carolina Ramblers - Bill Mason
TTITLE4=The Carter Family - Cannon Ball Blues
TTITLE5=The Blue Ridge Ramblers - D Blues
TTITLE6=The Carter Family - Keep On The Sunny Side
TTITLE7=The Monroe Brothers - What Would You Give In Exchange (For Your Soul?)
TTITLE8=The Carter Family - I'm Thinking Tonight Of My Blue Eyes
TTITLE9=Roy Acuff and His Crazy Tennesseans - Great Speckle Bird
TTITLE10=Roy Hall and His Blue Ridge Entertainers - Orangge Blossom Special
TTITLE11=Roy Acuff and His Smoky Mountain Boys - Ida Red
TTITLE12=The Coon Creek Girls - Pretty Polly
TTITLE13=Roy Acuff and His Smoky Mountain Boys - Lonesome Old River Blues
TTITLE14=Bill Monroe and His Blue Grass Boys - Mule Skinner Blues
TTITLE15=Roy Acuff and His Smoky Mountain Boys - Wreck On The Highway
TTITLE16=The Bailes Brothers - The Drunkard's Grave
TTITLE17=Bill Monroe and His Blue Grass Boys - Rocky Road Blues
TTITLE18=The Bailes Brothers - Searching For A Soldier's Grave
TTITLE19=Bill Monroe and His Blue Grass Boys - Blue Moon of Kentucky
TTITLE20=The Bailes Brothers - Dust On The Bible
TTITLE21=Molly O'Day and the Cumberland Mountain Folks - I Heard My Mother Weeping
TTITLE22=Bill Monroe and His Blue Grass Boys - Will You Be Loving Another Man?
TTITLE23=Bill Monroe and His Blue Grass Boys - Blue Grass Breakdown
TTITLE24=Bill Monroe and His Blue Grass Boys - It's Mighty Dark To Travel
TTITLE25=Bill Monroe and His Blue Grass Boys - Molly And Tenbrooks (The Race Horse Song)
TTITLE26=Roy Acuff and His Smoky Mountain Boys - Black Mountain Rag
EXTD=
EXTT0=
EXTT1=
EXTT2=
EXTT3=
EXTT4=
EXTT5=
EXTT6=
EXTT7=
EXTT8=
EXTT9=
EXTT10=
EXTT11=
EXTT12=
EXTT13=
EXTT14=
EXTT15=
EXTT16=
EXTT17=
EXTT18=
EXTT19=
EXTT20=
EXTT21=
EXTT22=
EXTT23=
EXTT24=
EXTT25=
EXTT26=
PLAYORDER=
